<svg xmlns="http://www.w3.org/2000/svg" width="16" height="16"><path fill="#fff" d="M1.241 6.25H8.51v5.322c0 .864-1.24 1.565-2.765 1.565H4.006c-1.525 0-2.765-.701-2.765-1.565V6.251Zm0-4.71c0-.362.709-.656 1.58-.656H6.93c.871 0 1.58.294 1.58.656v4.398H1.24V1.54Z"/><path fill="#555" stroke="#fff" stroke-width=".4" d="M3.652.437h2.446v4.584H3.652V.437Z"/><path fill="none" stroke="#fff" d="M4.913 12.606c.95 2.7-.907.531-1.6 2.644"/><path fill="none" stroke="#fff" d="M12.563 12.031V2.986" transform="matrix(1 0 0 .674 -.125 3.926)"/><path fill="none" stroke="#fff" stroke-width="2" d="m12.437 2.986 1.148 1.988H11.29l1.147-1.988Z"/></svg>